<svg width="610" height="662" viewBox="0 0 610 662" fill="none" xmlns="http://www.w3.org/2000/svg">
<path fill-rule="evenodd" clip-rule="evenodd" d="M60.2513 403.203C31.0056 393.733 17.5611 373.502 1.69159 301.502L1.64 299.704C-1.55949 188.19 -6.981 -0.768035 61.1916 0.00235114C61.7659 0.00883613 62.3396 0.0242017 62.9125 0.0483411C63.6629 0.00912604 64.4226 -0.00634637 65.1917 0.00235114C144.377 0.897203 209.873 170.348 236.388 269.375C256.323 260.148 278.531 255 301.942 255C302.828 255 303.713 255.007 304.596 255.022C305.479 255.007 306.364 255 307.25 255C330.661 255 352.869 260.148 372.804 269.375C399.319 170.348 464.814 0.897188 544 0.00235114C544.769 -0.00634637 545.529 0.00911079 546.279 0.0483259C546.852 0.0241865 547.426 0.00883613 548 0.00235114C616.173 -0.768035 610.751 188.19 607.552 299.704L607.5 301.502C591.63 373.502 578.186 393.733 548.94 403.203C534.285 415.252 515.91 422.941 495.798 424.288C496.717 431.144 497.192 438.142 497.192 445.25C497.192 497.651 471.397 544.027 431.813 572.373C429.526 602.032 406.537 625.891 377.274 629.521C360.091 649.123 334.866 661.5 306.75 661.5C306.03 661.5 305.312 661.492 304.596 661.476C303.88 661.492 303.162 661.5 302.442 661.5C274.326 661.5 249.101 649.123 231.918 629.521C202.655 625.891 179.666 602.032 177.379 572.373C137.795 544.027 112 497.651 112 445.25C112 438.142 112.475 431.144 113.394 424.288C93.2818 422.941 74.9066 415.252 60.2513 403.203Z" fill="#6366F1"/>
<path d="M372.804 269.375C399.319 170.348 464.814 0.897188 544 0.00235114C544.769 -0.00634637 545.529 0.00911079 546.279 0.0483259C546.852 0.0241865 547.426 0.00883613 548 0.00235114C616.173 -0.768035 610.751 188.19 607.552 299.704L607.5 301.502C591.63 373.502 578.186 393.733 548.94 403.203C534.285 415.252 515.91 422.941 495.798 424.288C496.717 431.144 497.192 438.142 497.192 445.25C497.192 497.651 471.397 544.027 431.813 572.373C429.526 602.032 406.537 625.891 377.274 629.521C360.091 649.123 334.866 661.5 306.75 661.5C306.03 661.5 305.312 661.492 304.596 661.476C303.88 661.492 303.162 661.5 302.442 661.5C274.326 661.5 249.101 649.123 231.918 629.521C202.655 625.891 179.666 602.032 177.379 572.373C137.795 544.027 112 497.651 112 445.25C112 438.142 112.475 431.144 113.394 424.288C186.298 425.275 340.246 395.675 372.804 269.375Z" fill="#6366F1"/>
<path d="M548 0.00235114C616.173 -0.768035 610.751 188.19 607.552 299.704L607.5 301.502C591.63 373.502 578.186 393.733 548.94 403.203C534.285 415.252 515.91 422.941 495.798 424.288C496.717 431.144 497.192 438.142 497.192 445.25C497.192 497.651 471.397 544.027 431.813 572.373C429.526 602.032 406.537 625.891 377.274 629.521C360.091 649.123 334.866 661.5 306.75 661.5C306.03 661.5 305.312 661.492 304.596 661.476C303.88 661.492 303.162 661.5 302.442 661.5C274.326 661.5 249.101 649.123 231.918 629.521C202.655 625.891 179.666 602.032 177.379 572.373C137.795 544.027 112 497.651 112 445.25C112 438.142 112.475 431.144 113.394 424.288C238.596 464.86 500.8 436.804 548 0.00235114Z" fill="#6366F1"/>
<path d="M607.5 301.502C591.63 373.502 578.186 393.733 548.94 403.203C534.285 415.252 515.91 422.941 495.798 424.288C496.717 431.145 497.192 438.142 497.192 445.25C497.192 497.651 471.397 544.027 431.813 572.373C429.526 602.032 406.537 625.891 377.274 629.521C360.091 649.124 334.866 661.5 306.75 661.5C306.03 661.5 305.312 661.492 304.596 661.476C303.88 661.492 303.162 661.5 302.442 661.5C274.326 661.5 249.101 649.123 231.918 629.521C202.655 625.891 179.666 602.032 177.379 572.373C137.795 544.027 112 497.651 112 445.25C112 438.142 112.475 431.145 113.394 424.288C243.929 465.525 527 473.1 609 175.5C609 209.5 609 257.5 607.5 301.502Z" fill="#6366F1"/>
<path d="M607.5 301.5C591.63 373.499 579.186 393.733 549.94 403.203C535.285 415.252 516.91 422.942 496.798 424.288C497.717 431.145 498.192 438.142 498.192 445.25C498.192 497.651 472.397 544.027 432.813 572.373C430.526 602.032 407.536 625.891 378.274 629.521C361.09 649.124 335.866 661.5 307.75 661.5C307.03 661.5 306.312 661.492 305.596 661.476C304.88 661.492 304.162 661.5 303.442 661.5C275.326 661.5 250.101 649.123 232.918 629.521C203.655 625.891 180.666 602.032 178.379 572.373C138.795 544.027 107 493.5 113.5 424.288C202.5 477.206 424.7 543.502 607.5 301.5Z" fill="#6366F1"/>
</svg>
